<svg xmlns="http://www.w3.org/2000/svg" version="1.1" xmlns:xlink="http://www.w3.org/1999/xlink" xmlns:svgjs="http://svgjs.dev/svgjs" width="1500" height="1500" viewBox="0 0 1500 1500"><rect width="1500" height="1500" fill="#f4fbfc"></rect><g transform="matrix(0.6666666666666666,0,0,0.6666666666666666,249.39393939393938,686.9750057106419)"><svg viewBox="0 0 396 50" data-background-color="#f4fbfc" preserveAspectRatio="xMidYMid meet" height="189" width="1500" xmlns="http://www.w3.org/2000/svg" xmlns:xlink="http://www.w3.org/1999/xlink"><g id="tight-bounds" transform="matrix(1,0,0,1,0.2400000000000091,0.00991836879290986)"><svg viewBox="0 0 395.52 49.9801632624142" height="49.9801632624142" width="395.52"><g><svg viewBox="0 0 659.6293637788137 83.3545289602233" height="49.9801632624142" width="395.52"><g transform="matrix(1,0,0,1,264.1093637788137,0)"><svg viewBox="0 0 395.52000000000004 83.3545289602233" height="83.3545289602233" width="395.52000000000004"><g id="textblocktransform"><svg viewBox="0 0 395.52000000000004 83.3545289602233" height="83.3545289602233" width="395.52000000000004" id="textblock"><g><svg viewBox="0 0 395.52000000000004 83.3545289602233" height="83.3545289602233" width="395.52000000000004"><g transform="matrix(1,0,0,1,0,0)"><svg width="395.52000000000004" viewBox="0.85 -36.25 174.92000000000002 36.86" height="83.3545289602233" data-palette-color="#d9dcd6"><path d="M16.41-4.76L26.73-35.64 31.98-35.64Q31.32-34.16 30.57-32.23 29.81-30.3 28.56-26.73L28.56-26.73 19.17 0 13.67 0 4.15-26.73Q2.88-30.27 2.17-32.21 1.46-34.16 0.85-35.64L0.85-35.64 6.1-35.64 16.41-4.76ZM48.46-15.26L42.23-15.26 42.23-10.62Q42.23-7.01 42.29-4.22 42.36-1.44 42.6 0L42.6 0 37.23 0Q37.5-1.46 37.55-4.24 37.6-7.01 37.6-10.62L37.6-10.62 37.6-24.41Q37.6-28 37.55-31.09 37.5-34.18 37.23-35.64L37.23-35.64Q37.23-35.64 40.04-35.77 42.84-35.89 47.12-35.89L47.12-35.89Q50.93-35.89 53.81-34.85 56.69-33.81 58.31-31.62 59.93-29.42 59.93-25.88L59.93-25.88Q59.93-22.97 58.8-20.95 57.66-18.92 55.89-17.66 54.12-16.41 52.13-15.83 50.14-15.26 48.46-15.26L48.46-15.26ZM42.23-31.86L42.23-31.86 42.23-19.04 46.87-19.04Q51-19.04 53.15-20.76 55.3-22.49 55.3-25.51L55.3-25.51Q55.3-28.64 53.33-30.31 51.36-31.98 46.87-31.98L46.87-31.98Q45.6-31.98 44.41-31.95 43.21-31.91 42.23-31.86ZM57.49 0L47.02-15.5 50.78-17.33Q50.78-17.33 51.61-16.2 52.44-15.06 53.77-13.24 55.1-11.43 56.64-9.34 58.18-7.25 59.64-5.27 61.11-3.3 62.2-1.87 63.3-0.44 63.72 0L63.72 0 57.49 0ZM93.13-17.46L93.13-17.46Q93.13-21.97 91.83-25.22 90.52-28.47 88.19-30.22 85.86-31.98 82.76-31.98L82.76-31.98Q79.68-31.98 77.31-30.3 74.95-28.61 73.6-25.51 72.26-22.41 72.26-18.19L72.26-18.19Q72.26-13.75 73.57-10.47 74.87-7.2 77.23-5.43 79.58-3.66 82.76-3.66L82.76-3.66Q85.76-3.66 88.11-5.31 90.45-6.96 91.79-10.05 93.13-13.13 93.13-17.46ZM97.9-18.07L97.9-18.07Q97.9-13.67 96.6-10.21 95.31-6.74 93.12-4.33 90.94-1.93 88.19-0.66 85.44 0.61 82.51 0.61L82.51 0.61Q79.56 0.61 76.86-0.59 74.16-1.78 72.05-4.1 69.94-6.42 68.72-9.8 67.5-13.18 67.5-17.58L67.5-17.58Q67.5-21.97 68.79-25.43 70.09-28.88 72.3-31.3 74.51-33.72 77.28-34.99 80.05-36.25 83-36.25L83-36.25Q85.91-36.25 88.58-35.06 91.25-33.86 93.35-31.54 95.45-29.22 96.67-25.84 97.9-22.46 97.9-18.07ZM128.78-17.46L128.78-17.46Q128.78-21.97 127.47-25.22 126.16-28.47 123.83-30.22 121.5-31.98 118.4-31.98L118.4-31.98Q115.32-31.98 112.96-30.3 110.59-28.61 109.25-25.51 107.9-22.41 107.9-18.19L107.9-18.19Q107.9-13.75 109.21-10.47 110.51-7.2 112.87-5.43 115.23-3.66 118.4-3.66L118.4-3.66Q121.4-3.66 123.75-5.31 126.09-6.96 127.43-10.05 128.78-13.13 128.78-17.46ZM133.54-18.07L133.54-18.07Q133.54-13.67 132.24-10.21 130.95-6.74 128.76-4.33 126.58-1.93 123.83-0.66 121.09 0.61 118.16 0.61L118.16 0.61Q115.2 0.61 112.5-0.59 109.81-1.78 107.7-4.1 105.58-6.42 104.36-9.8 103.14-13.18 103.14-17.58L103.14-17.58Q103.14-21.97 104.44-25.43 105.73-28.88 107.94-31.3 110.15-33.72 112.92-34.99 115.69-36.25 118.64-36.25L118.64-36.25Q121.55-36.25 124.22-35.06 126.9-33.86 129-31.54 131.1-29.22 132.32-25.84 133.54-22.46 133.54-18.07ZM147.57-35.64L158.07-5 168.69-35.64 172.77-35.64 170.74-29.86 160.51 0 155.75 0 145.5-29.86 143.42-35.64 147.57-35.64ZM142.08-35.64L142.08-35.64 146.35-35.64 145.67-29.42 144.89 0 140.37 0Q140.52-1.03 140.66-3.45 140.81-5.88 140.98-9.16 141.15-12.43 141.31-16.05 141.47-19.68 141.6-23.14 141.74-26.61 141.85-29.44 141.96-32.28 142.02-33.96 142.08-35.64 142.08-35.64ZM175.77 0L175.77 0 171.25 0 170.57-29.42 169.79-35.64 174.06-35.64Q174.18-31.67 174.36-27.22 174.53-22.78 174.71-18.41 174.89-14.04 175.08-10.25 175.26-6.47 175.44-3.77 175.62-1.07 175.77 0Z" opacity="1" transform="matrix(1,0,0,1,0,0)" fill="#d9dcd6" class="wordmark-text-0" data-fill-palette-color="primary" id="text-0"></path></svg></g></svg></g></svg></g></svg></g><g transform="matrix(1,0,0,1,0,1.9859883689125866)"><svg viewBox="0 0 244.43136000000004 79.38255222239813" height="79.38255222239813" width="244.43136000000004"><g><svg xmlns="http://www.w3.org/2000/svg" xmlns:xlink="http://www.w3.org/1999/xlink" version="1.1" x="0" y="0" viewBox="5.499 34.101 88.41800000000002 28.714999999999996" enable-background="new 0 0 100 100" xml:space="preserve" height="79.38255222239813" width="244.43136000000004" class="icon-icon-0" data-fill-palette-color="accent" id="icon-0"><path d="M25.269 47.291c-4.28 0-7.762 3.482-7.762 7.762 0 4.28 3.482 7.763 7.762 7.763s7.762-3.482 7.762-7.763C33.031 50.773 29.549 47.291 25.269 47.291zM25.269 57.964c-1.605 0-2.911-1.306-2.911-2.911 0-1.604 1.306-2.91 2.911-2.91s2.911 1.306 2.911 2.91C28.18 56.658 26.874 57.964 25.269 57.964z" fill="#d9dcd6" data-fill-palette-color="accent"></path><path d="M71.468 47.291c-4.28 0-7.763 3.482-7.763 7.762 0 4.28 3.482 7.763 7.763 7.763s7.763-3.482 7.763-7.763C79.23 50.773 75.748 47.291 71.468 47.291zM71.468 57.964c-1.605 0-2.911-1.306-2.911-2.911 0-1.604 1.306-2.91 2.911-2.91s2.911 1.306 2.911 2.91C74.379 56.658 73.073 57.964 71.468 57.964z" fill="#d9dcd6" data-fill-palette-color="accent"></path><path d="M75.372 41.221c-3.579-0.389-7.631-0.53-9.48-0.53-2.607 0-6.231-1.497-9.736-2.943-3.946-1.629-8.027-3.313-11.602-3.313-4.33 0-13.599 1.531-21.022 4.006-8.439 2.813-13.71 4.587-15.247 9.695-0.694 0.25-1.221 0.886-1.283 1.671-0.055 0.702 0.274 1.342 0.808 1.725 0 0.044-0.006 0.082-0.006 0.126 0 1.999 0.832 4.689 4.795 6.147 1.259 0.466 2.651-0.182 3.114-1.438 0.463-1.256-0.181-2.651-1.438-3.113-1.62-0.597-1.62-1.15-1.62-1.596 0-3.801 0.918-4.784 12.411-8.615 1.081-0.36 2.191-0.693 3.309-1.003 0.061 0.081 0.119 0.162 0.192 0.235l9.724 9.724c0.426 0.427 0.985 0.64 1.543 0.64s1.118-0.213 1.543-0.64c0.853-0.853 0.853-2.234 0-3.087l-3.13-3.131 26.416-0.307c0.415 0.041 0.826 0.068 1.229 0.068 1.678 0 5.592 0.137 8.957 0.502 2.205 0.239 4.178 0.563 5.904 0.963-0.151 0.287-0.248 0.606-0.257 0.952-0.033 1.205 0.917 2.209 2.122 2.242l4.447 0.122c0.021 0 0.041 0.001 0.061 0.001 0.272 0 0.532-0.055 0.774-0.147 0.723 0.711 1.124 1.486 1.162 2.32-0.158 0.112-0.591 0.354-1.591 0.56-1.742 0.36-3.76 0.264-3.776 0.264-1.352-0.09-2.48 0.957-2.55 2.294-0.07 1.338 0.957 2.479 2.294 2.55 0.038 0.003 0.374 0.019 0.896 0.019 0.968 0 2.579-0.058 4.117-0.375 4.755-0.981 5.465-3.666 5.465-5.179C93.917 46.395 87.678 42.557 75.372 41.221zM33.299 40.833c4.744-1.017 9.062-1.547 11.254-1.547 2.018 0 4.643 0.895 7.349 1.969L33.93 41.464 33.299 40.833z" fill="#d9dcd6" data-fill-palette-color="accent"></path><path d="M59.078 54.825c-0.001 0-0.003 0-0.004 0l-21.8 0.034c-1.339 0.002-2.424 1.09-2.422 2.43 0.002 1.338 1.088 2.422 2.426 2.422 0.001 0 0.002 0 0.004 0l21.8-0.034c1.34-0.002 2.424-1.09 2.422-2.43C61.502 55.909 60.416 54.825 59.078 54.825z" fill="#d9dcd6" data-fill-palette-color="accent"></path><path d="M7.925 38.953h9.703c1.34 0 2.425-1.086 2.425-2.426s-1.085-2.426-2.425-2.426H7.925c-1.34 0-2.426 1.086-2.426 2.426S6.585 38.953 7.925 38.953z" fill="#d9dcd6" data-fill-palette-color="accent"></path></svg></g></svg></g></svg></g><defs></defs></svg><rect width="395.52" height="49.9801632624142" fill="none" stroke="none" visibility="hidden"></rect></g></svg></g></svg>